<svg xmlns="http://www.w3.org/2000/svg" width="1200" height="140" viewBox="0 0 1200 140" role="img" aria-labelledby="title desc">
  <title id="title">Eight domain parts</title>
  <desc id="desc">Eight parts covering strategy, marketing, commerce, planning, PR, data-research-reports, organization, and appendix prompts</desc>
  <rect width="1200" height="140" rx="14" fill="#0c1118"/>
  <text x="56" y="52" fill="#f5f0e8" font-family="-apple-system, BlinkMacSystemFont, Segoe UI, PingFang SC, sans-serif" font-size="32" font-weight="700">8 domains / 63 prompts</text>
  <text x="56" y="84" fill="#8fa3b8" font-family="-apple-system, sans-serif" font-size="16">Part 6 now covers research → report → slide decks — see INDEX.md</text>
  <g transform="translate(56 100)">
    <rect x="0" y="0" width="72" height="28" rx="6" fill="#1e3a5f"/><text x="36" y="19" fill="#7eb8ff" font-family="ui-monospace, monospace" font-size="12" text-anchor="middle">Part 1</text>
    <rect x="80" y="0" width="72" height="28" rx="6" fill="#1a2e22"/><text x="116" y="19" fill="#8fd4a8" font-family="ui-monospace, monospace" font-size="12" text-anchor="middle">Part 2</text>
    <rect x="160" y="0" width="72" height="28" rx="6" fill="#2e1a2a"/><text x="196" y="19" fill="#d4a0c8" font-family="ui-monospace, monospace" font-size="12" text-anchor="middle">Part 3</text>
    <rect x="240" y="0" width="72" height="28" rx="6" fill="#2e2a1a"/><text x="276" y="19" fill="#e8c878" font-family="ui-monospace, monospace" font-size="12" text-anchor="middle">Part 4</text>
    <rect x="320" y="0" width="72" height="28" rx="6" fill="#1a2433"/><text x="356" y="19" fill="#a8b8c8" font-family="ui-monospace, monospace" font-size="12" text-anchor="middle">Part 5</text>
    <rect x="400" y="0" width="72" height="28" rx="6" fill="#1a2a33"/><text x="436" y="19" fill="#78c8e8" font-family="ui-monospace, monospace" font-size="12" text-anchor="middle">Part 6</text>
    <rect x="480" y="0" width="72" height="28" rx="6" fill="#24201a"/><text x="516" y="19" fill="#c8b878" font-family="ui-monospace, monospace" font-size="12" text-anchor="middle">Part 7</text>
    <rect x="560" y="0" width="72" height="28" rx="6" fill="#3d2e14" stroke="#e8a838" stroke-width="1"/><text x="596" y="19" fill="#e8a838" font-family="ui-monospace, monospace" font-size="12" text-anchor="middle">Part 8</text>
  </g>
</svg>